# xmcd CD database file
#
# Track frame offsets:
#	150
#	3122
#	20970
#	40200
#	55575
#	75780
#	97035
#	114535
#	128495
#	190015
#	206367
#	224787
#
# Disc length: 3215 seconds
#
# Revision: 1
# Processed by: cddbd v1.5.1PL0 Copyright (c) Steve Scherf et al.
# Submitted via: CDex 1.51
#
DISCID=960c8d0c
DTITLE=3582 - Sithational Ethics
DYEAR=2003
DGENRE=Hip-Hop
TTITLE0=Intro
TTITLE1=The E
TTITLE2=Look at you
TTITLE3=Loser type
TTITLE4=Take it to the face
TTITLE5=I would change
TTITLE6=Bad as they come
TTITLE7=Vanessa from Venezuela
TTITLE8=Outro
TTITLE9=The E (Remix)
TTITLE10=Bad as they come (Remix)
TTITLE11=Late night (Featuring pase rock)
EXTD=YEAR: 2003
EXTT0=
EXTT1=
EXTT2=
EXTT3=
EXTT4=
EXTT5=
EXTT6=
EXTT7=
EXTT8=
EXTT9=
EXTT10=
EXTT11=
PLAYORDER=
